<svg xmlns="http://www.w3.org/2000/svg" width="400" height="500" viewBox="0 0 400 500" fill="none">
  <defs>
    <linearGradient id="bg" x1="0" y1="0" x2="1" y2="1">
      <stop offset="0" stop-color="#f8f9fa"/>
      <stop offset="1" stop-color="#e9ecef"/>
    </linearGradient>
    <pattern id="kente" x="0" y="0" width="20" height="20" patternUnits="userSpaceOnUse">
      <rect width="20" height="20" fill="#FDB913"/>
      <rect x="0" y="0" width="5" height="20" fill="#EF3340"/>
      <rect x="15" y="0" width="5" height="20" fill="#009739"/>
      <rect x="5" y="8" width="10" height="4" fill="#111" opacity="0.8"/>
    </pattern>
  </defs>

  <!-- Background -->
  <rect width="400" height="500" fill="url(#bg)"/>

  <!-- Shirt silhouette -->
  <path d="M120 80 L120 60 Q120 50 130 50 L270 50 Q280 50 280 60 L280 80 L320 100 L320 140 L300 140 L300 420 Q300 440 280 440 L120 440 Q100 440 100 420 L100 140 L80 140 L80 100 Z" fill="#fff" stroke="#ddd" stroke-width="2"/>

  <!-- Kente pattern on shirt -->
  <path d="M130 70 L270 70 L270 400 L130 400 Z" fill="url(#kente)"/>

  <!-- Collar -->
  <path d="M180 50 L180 80 L200 90 L220 80 L220 50" fill="#fff" stroke="#ddd" stroke-width="1"/>

  <!-- Sleeves -->
  <ellipse cx="90" cy="120" rx="25" ry="40" fill="url(#kente)" transform="rotate(-20 90 120)"/>
  <ellipse cx="310" cy="120" rx="25" ry="40" fill="url(#kente)" transform="rotate(20 310 120)"/>

  <!-- Shadow -->
  <ellipse cx="200" cy="480" rx="80" ry="15" fill="#000" opacity="0.1"/>

  <!-- Adinkra symbols -->
  <g fill="#111" opacity="0.6">
    <circle cx="160" cy="150" r="8"/>
    <path d="M160 142 L160 158 M152 150 L168 150"/>
    <circle cx="240" cy="200" r="6"/>
    <path d="M240 194 L240 206 M234 200 L246 200"/>
  </g>

  <!-- Fabric texture lines -->
  <g stroke="#000" stroke-width="0.5" opacity="0.2">
    <line x1="130" y1="100" x2="270" y2="100"/>
    <line x1="130" y1="120" x2="270" y2="120"/>
    <line x1="130" y1="140" x2="270" y2="140"/>
  </g>
</svg>
