<svg xmlns="http://www.w3.org/2000/svg" width="400" height="600" viewBox="0 0 400 600" fill="none">
  <defs>
    <linearGradient id="bg5" x1="0" y1="0" x2="1" y2="1">
      <stop offset="0" stop-color="#f8f9fa"/>
      <stop offset="1" stop-color="#e9ecef"/>
    </linearGradient>
    <pattern id="kenteLining" x="0" y="0" width="15" height="15" patternUnits="userSpaceOnUse">
      <rect width="15" height="15" fill="#FDB913"/>
      <rect x="0" y="0" width="3" height="15" fill="#EF3340"/>
      <rect x="12" y="0" width="3" height="15" fill="#009739"/>
      <rect x="3" y="6" width="9" height="3" fill="#111" opacity="0.7"/>
    </pattern>
    <filter id="blazerShadow" x="-50%" y="-50%" width="200%" height="200%">
      <feDropShadow dx="4" dy="8" stdDeviation="6" flood-opacity="0.3"/>
    </filter>
  </defs>
  
  <!-- Background -->
  <rect width="400" height="600" fill="url(#bg5)"/>
  
  <!-- Blazer silhouette -->
  <path d="M120 80 L120 60 Q120 50 130 50 L270 50 Q280 50 280 60 L280 80 L320 120 L320 160 L300 160 L300 480 Q300 490 290 490 L110 490 Q100 490 100 480 L100 160 L80 160 L80 120 Z" fill="#2c3e50" filter="url(#blazerShadow)"/>
  
  <!-- Lapels -->
  <path d="M130 60 L160 100 L180 80 L180 50" fill="#34495e"/>
  <path d="M270 60 L240 100 L220 80 L220 50" fill="#34495e"/>
  
  <!-- Blazer front panels -->
  <path d="M180 80 L180 480 L200 480 L200 80" fill="#34495e"/>
  <path d="M200 80 L200 480 L220 480 L220 80" fill="#2c3e50"/>
  
  <!-- Buttons -->
  <circle cx="190" cy="150" r="4" fill="#bdc3c7"/>
  <circle cx="190" cy="180" r="4" fill="#bdc3c7"/>
  <circle cx="190" cy="210" r="4" fill="#bdc3c7"/>
  
  <!-- Pocket -->
  <rect x="140" y="200" width="35" height="25" rx="2" fill="none" stroke="#1a252f" stroke-width="1"/>
  <rect x="225" y="200" width="35" height="25" rx="2" fill="none" stroke="#1a252f" stroke-width="1"/>
  
  <!-- Kente lining (visible at cuffs and collar) -->
  <rect x="120" y="50" width="160" height="8" fill="url(#kenteLining)"/>
  <rect x="100" y="450" width="40" height="8" fill="url(#kenteLining)"/>
  <rect x="260" y="450" width="40" height="8" fill="url(#kenteLining)"/>
  
  <!-- Sleeves -->
  <ellipse cx="90" cy="140" rx="25" ry="60" fill="#2c3e50" transform="rotate(-10 90 140)"/>
  <ellipse cx="310" cy="140" rx="25" ry="60" fill="#2c3e50" transform="rotate(10 310 140)"/>
  
  <!-- Sleeve cuffs with Kente -->
  <rect x="70" y="190" width="40" height="6" fill="url(#kenteLining)" transform="rotate(-10 90 193)"/>
  <rect x="290" y="190" width="40" height="6" fill="url(#kenteLining)" transform="rotate(10 310 193)"/>
  
  <!-- Collar detail -->
  <path d="M160 50 L180 70 L200 60 L220 70 L240 50" fill="#34495e"/>
  
  <!-- Shadow -->
  <ellipse cx="200" cy="580" rx="90" ry="15" fill="#000" opacity="0.1"/>
  
  <!-- Fabric texture -->
  <g stroke="#1a252f" stroke-width="0.3" opacity="0.2">
    <line x1="130" y1="100" x2="270" y2="100"/>
    <line x1="130" y1="120" x2="270" y2="120"/>
    <line x1="130" y1="140" x2="270" y2="140"/>
  </g>
</svg>
